<?xml version="1.0" standalone="no"?>
<!DOCTYPE svg PUBLIC "-//W3C//DTD SVG 20010904//EN"
 "http://www.w3.org/TR/2001/REC-SVG-20010904/DTD/svg10.dtd">
<svg version="1.0" xmlns="http://www.w3.org/2000/svg"
 width="4501.000000pt" height="4501.000000pt" viewBox="0 0 4501.000000 4501.000000"
 preserveAspectRatio="xMidYMid meet">

<g transform="translate(0.000000,4501.000000) scale(0.100000,-0.100000)"
fill="#000000" stroke="none">
<path d="M25209 39320 c-19 -5 -737 -270 -1595 -588 -857 -319 -1575 -583
-1594 -587 -70 -15 -187 -59 -275 -103 -324 -161 -565 -435 -662 -749 -24 -80
-27 -103 -27 -253 -1 -185 12 -246 81 -385 79 -156 197 -270 1003 -965 1056
-910 1569 -1394 1866 -1760 177 -218 229 -329 249 -526 l7 -72 -54 -13 c-78
-19 -229 -14 -321 10 -176 46 -56 -53 -2227 1847 -1097 960 -2018 1761 -2045
1780 -108 73 -274 102 -400 71 -71 -17 -4173 -1645 -4260 -1690 -117 -61 -215
-188 -251 -322 -21 -76 -18 -211 6 -288 35 -112 87 -175 300 -366 2867 -2565
5073 -4946 6308 -6808 576 -870 915 -1567 1087 -2237 262 -1019 422 -2165 497
-3546 18 -319 17 -1755 0 -2100 -62 -1234 -161 -2203 -353 -3460 -53 -345 -52
-410 11 -537 72 -146 206 -252 357 -283 126 -26 279 -1 381 64 73 46 3828
2987 3889 3046 69 67 117 153 133 240 20 113 81 1834 110 3120 11 489 30 2369
27 2760 -1 239 1 263 26 390 66 335 168 595 328 836 135 203 380 422 582 520
l57 28 53 -26 c70 -35 181 -115 256 -183 171 -159 266 -365 310 -673 72 -499
76 -1870 10 -2732 -24 -316 -29 -715 -10 -860 38 -294 113 -515 240 -703 173
-257 454 -445 758 -506 125 -26 329 -28 459 -6 134 24 314 88 449 161 115 62
180 114 1460 1174 737 610 1365 1136 1395 1168 62 65 113 160 129 242 20 102
66 779 91 1325 42 944 38 2105 -10 2970 -108 1947 -441 3439 -959 4297 -130
215 -445 663 -787 1119 -1590 2119 -3728 4136 -5964 5628 -308 205 -679 440
-768 485 -101 51 -249 70 -353 46z m-3584 -2116 c22 -23 704 -640 1515 -1372
811 -732 1490 -1351 1508 -1376 49 -67 98 -169 119 -249 24 -94 24 -266 0
-357 -18 -69 -95 -232 -112 -237 -5 -1 -18 30 -27 70 -97 398 -630 960 -2198
2313 -739 637 -882 771 -925 866 -58 127 -51 271 20 409 l17 33 22 -30 c11
-16 39 -48 61 -70z m7602 -10665 c325 -36 591 -203 784 -493 107 -159 191
-351 208 -473 38 -269 53 -953 60 -2713 l6 -1625 27 -65 c15 -35 25 -66 23
-69 -11 -10 -203 21 -274 45 -141 47 -273 141 -371 263 -94 118 -154 265 -192
471 -30 160 -30 530 0 905 33 414 45 931 39 1630 -8 914 -34 1210 -132 1511
-72 219 -213 438 -369 575 l-39 34 29 6 c46 10 98 10 201 -2z"/>
<path d="M12711 34309 c-445 -50 -853 -260 -1218 -626 -642 -646 -1078 -1737
-1207 -3028 -37 -367 -41 -456 -41 -975 1 -548 8 -705 56 -1140 127 -1163 452
-2392 930 -3513 155 -362 696 -1419 1082 -2112 237 -425 498 -839 645 -1021
164 -204 329 -338 471 -384 99 -32 223 -26 304 14 147 72 276 224 449 531 81
143 75 179 47 -315 -25 -449 -36 -1173 -20 -1360 15 -173 38 -318 63 -400 56
-181 343 -898 503 -1255 635 -1419 1547 -2842 2676 -4180 328 -388 606 -628
898 -774 683 -343 1350 -100 1964 715 506 674 986 1821 1206 2884 98 478 194
1338 242 2170 16 284 23 1766 10 2096 -20 507 -77 1024 -177 1629 -273 1651
-748 2996 -1319 3740 -65 85 -1233 1487 -1724 2070 -1892 2245 -3235 3718
-4141 4544 -435 397 -804 599 -1228 671 -135 24 -355 32 -471 19z m367 -1325
c176 -36 349 -132 504 -282 165 -159 308 -353 329 -448 24 -105 -26 -221 -116
-271 -22 -12 -420 -181 -885 -375 l-845 -353 -81 0 c-72 0 -86 3 -129 30 -58
36 -100 92 -117 158 -10 40 -10 70 5 184 56 445 199 794 422 1031 125 132 260
223 421 281 168 61 338 77 492 45z m1078 -9988 c10 -26 -233 -548 -354 -761
-67 -118 -155 -244 -202 -290 l-40 -39 -37 19 c-49 26 -185 161 -251 249 -29
38 -51 72 -51 75 3 14 619 606 679 653 111 87 240 135 256 94z"/>
<path d="M17823 10634 c-6 -17 1 -176 17 -379 5 -67 14 -331 20 -588 11 -476
1 -1188 -21 -1492 -5 -77 -12 -195 -16 -261 -6 -122 -6 -122 20 -148 l26 -26
431 0 c262 0 438 4 450 10 37 20 40 59 40 522 l0 450 78 -43 c154 -84 490
-284 795 -473 449 -277 960 -566 975 -552 3 4 -2 131 -12 284 -47 757 -50
1593 -7 2387 9 169 2 211 -35 225 -38 15 -837 13 -868 -1 -14 -7 -30 -25 -36
-42 -6 -19 -10 -193 -10 -483 0 -329 -3 -454 -11 -454 -17 0 -196 108 -709
425 -633 391 -847 518 -1048 619 -63 32 -73 34 -79 20z"/>
<path d="M24515 10575 c-612 -108 -1091 -578 -1202 -1179 -24 -126 -23 -389 1
-511 58 -296 185 -535 396 -745 209 -209 448 -338 743 -402 148 -32 457 -32
603 0 309 67 549 196 759 407 270 271 407 602 407 985 -1 169 -21 300 -73 455
-120 361 -396 677 -744 850 -118 58 -244 104 -365 130 -105 23 -418 29 -525
10z m388 -910 c173 -45 305 -180 352 -362 9 -32 15 -101 15 -158 0 -163 -43
-282 -139 -386 -83 -91 -199 -139 -341 -139 -360 0 -611 309 -536 660 22 102
57 170 128 246 65 69 165 127 248 143 73 14 211 12 273 -4z"/>
<path d="M32075 10575 c-612 -108 -1091 -578 -1202 -1179 -24 -126 -23 -389 1
-511 58 -296 185 -535 396 -745 209 -209 448 -338 743 -402 148 -32 457 -32
603 0 309 67 549 196 759 407 270 271 407 602 407 985 -1 169 -21 300 -73 455
-120 361 -396 677 -744 850 -118 58 -244 104 -365 130 -105 23 -418 29 -525
10z m388 -910 c173 -45 305 -180 352 -362 9 -32 15 -101 15 -158 0 -163 -43
-282 -139 -386 -83 -91 -199 -139 -341 -139 -360 0 -611 309 -536 660 22 102
57 170 128 246 65 69 165 127 248 143 73 14 211 12 273 -4z"/>
<path d="M6353 10559 c-356 -52 -596 -217 -690 -476 -64 -178 -69 -460 -12
-673 36 -133 88 -200 273 -349 143 -116 270 -247 310 -320 35 -66 41 -150 13
-178 -28 -28 -264 -25 -419 7 -114 23 -118 23 -138 5 -26 -23 -47 -95 -60
-204 -6 -47 -29 -179 -51 -293 -44 -233 -46 -259 -21 -281 22 -19 119 -52 198
-66 99 -18 408 -29 560 -20 251 14 410 51 574 131 88 44 118 65 185 132 64 64
90 99 122 166 65 132 74 179 80 396 10 375 -38 477 -347 725 -184 147 -274
252 -299 347 -16 58 -5 91 35 108 43 18 170 17 254 -1 36 -8 73 -14 83 -15 36
0 55 37 87 171 45 191 110 509 110 542 0 67 -106 114 -316 142 -120 16 -430
18 -531 4z"/>
<path d="M7565 10538 l-28 -22 7 -270 c11 -459 16 -544 37 -569 17 -21 25 -22
261 -27 l243 -5 -4 -931 -3 -932 21 -21 c21 -21 26 -21 446 -21 l426 0 26 26
25 26 -8 591 c-5 326 -9 743 -9 927 l0 335 268 5 c262 5 269 6 287 27 21 27
27 111 36 539 l7 300 -28 22 -28 22 -977 0 -977 0 -28 -22z"/>
<path d="M9954 10537 l-27 -24 13 -459 c8 -252 13 -688 12 -969 -1 -459 -5
-617 -28 -1141 l-7 -152 26 -26 26 -26 1024 0 c1174 0 1066 -9 1075 93 4 56
-24 691 -34 754 -3 20 -14 38 -27 45 -17 10 -156 14 -577 18 l-555 5 -8 50
c-5 27 -6 64 -2 82 l6 32 458 3 c435 3 460 4 480 22 20 19 21 27 21 301 0 227
-3 285 -14 301 -14 18 -34 19 -478 24 l-463 5 -3 88 -3 87 520 0 c306 0 530 4
545 10 57 21 58 28 68 446 6 211 7 395 4 407 -3 13 -17 29 -31 35 -19 9 -279
12 -1010 12 l-984 0 -27 -23z"/>
<path d="M12434 10535 l-27 -27 6 -157 c3 -86 11 -282 18 -436 13 -310 6
-1397 -10 -1670 -6 -88 -13 -226 -17 -306 l-7 -147 26 -26 26 -26 420 0 c231
0 427 3 435 6 37 14 41 44 46 314 l5 265 305 6 c250 5 323 10 405 27 481 97
771 399 841 874 20 134 15 373 -9 483 -86 383 -352 648 -772 770 -230 67 -244
68 -987 72 l-678 4 -26 -26z m1356 -756 c160 -34 239 -186 211 -406 -13 -100
-42 -186 -79 -233 -64 -79 -147 -99 -412 -100 l-155 0 -2 375 -3 375 195 0
c107 0 217 -5 245 -11z"/>
<path d="M16410 10542 l-22 -18 -2 -1369 c-1 -1313 -1 -1369 17 -1392 l18 -23
429 0 c406 0 429 1 451 19 24 19 24 20 23 218 -1 109 -4 726 -5 1371 l-4 1174
-24 19 c-22 18 -45 19 -441 19 -387 0 -419 -1 -440 -18z"/>
<path d="M20975 10538 l-28 -22 7 -270 c11 -459 16 -544 37 -569 17 -21 25
-22 261 -27 l243 -5 -4 -931 -3 -932 21 -21 c21 -21 26 -21 446 -21 l426 0 26
26 25 26 -8 591 c-5 326 -9 743 -9 927 l0 335 268 5 c262 5 269 6 287 27 21
27 27 111 36 539 l7 300 -28 22 -28 22 -977 0 -977 0 -28 -22z"/>
<path d="M27685 10535 c-23 -22 -25 -32 -25 -107 0 -46 5 -137 10 -203 5 -66
15 -326 21 -578 13 -462 3 -1135 -21 -1472 -6 -71 -13 -187 -16 -256 l-7 -127
26 -26 26 -26 426 0 c482 0 458 -4 469 82 4 24 10 250 14 503 l7 460 448 3
447 2 1 -82 c10 -852 14 -935 53 -960 6 -4 202 -8 436 -8 380 0 428 2 449 17
24 16 24 16 18 177 -3 89 -11 267 -18 396 -19 344 -18 1469 1 1780 8 135 15
283 15 328 0 131 36 122 -471 122 -487 0 -458 6 -468 -92 -3 -29 -9 -255 -13
-503 l-8 -450 -445 0 -445 0 -7 445 c-3 245 -8 472 -11 504 -6 101 20 96 -469
96 l-419 0 -24 -25z"/>
<path d="M34189 10544 c-18 -22 -16 -257 6 -704 26 -526 16 -1324 -21 -1798
-9 -112 -13 -219 -10 -237 13 -66 6 -65 457 -65 385 0 408 1 430 19 23 19 24
24 27 193 3 182 6 218 22 218 5 0 140 -128 299 -285 242 -238 295 -285 318
-285 32 0 84 50 375 365 195 211 235 251 243 243 3 -3 8 -99 12 -214 6 -200 7
-209 29 -231 l23 -23 432 2 432 3 20 27 c21 28 21 28 3 275 -9 137 -21 345
-26 463 -12 280 -12 1132 0 1330 5 85 13 275 16 422 8 287 6 298 -41 298 -45
0 -145 -100 -1048 -1048 -264 -277 -486 -506 -494 -509 -20 -8 -77 49 -266
267 -640 735 -1140 1272 -1198 1285 -17 4 -30 1 -40 -11z"/>
<path d="M37764 10537 l-27 -24 13 -459 c8 -252 13 -688 12 -969 -1 -459 -5
-617 -28 -1141 l-7 -152 26 -26 26 -26 1024 0 c1174 0 1066 -9 1075 93 4 56
-24 691 -34 754 -3 20 -14 38 -27 45 -17 10 -156 14 -577 18 l-555 5 -8 50
c-5 27 -6 64 -2 82 l6 32 458 3 c435 3 460 4 480 22 20 19 21 27 21 301 0 227
-3 285 -14 301 -14 18 -34 19 -478 24 l-463 5 -3 88 -3 87 520 0 c306 0 530 4
545 10 57 21 58 28 68 446 6 211 7 395 4 407 -3 13 -17 29 -31 35 -19 9 -279
12 -1010 12 l-984 0 -27 -23z"/>
</g>
</svg>
